<svg version="1.1" xmlns="http://www.w3.org/2000/svg" xmlns:xlink="http://www.w3.org/1999/xlink" width="791" height="268"><defs/><g><g transform="translate(10,-14) scale(1,1)"><rect fill="#C0C0C0" stroke="none" x="255" y="31" width="112" height="44" opacity="0.2"/></g><g transform="translate(10,-14) scale(1,1)"><rect fill="#ffffff" stroke="none" x="248" y="24" width="112" height="44"/></g><g transform="translate(10,-14) scale(1,1)"><path fill="none" stroke="#000000" d="M 248 24 L 360 24 L 360 68 L 248 68 L 248 24 Z Z" stroke-miterlimit="10"/></g><g transform="translate(10,-14) scale(1,1)"><path fill="none" stroke="#000000" d="M 248 49 L 360 49" stroke-miterlimit="10"/></g><g transform="translate(10,-14) scale(1,1)"><path fill="none" stroke="#000000" d="M 248 59 L 360 59" stroke-miterlimit="10"/></g><g transform="translate(10,-14) scale(1,1)"><g><path fill="none" stroke="none"/><text fill="#000000" stroke="none" font-family="Arial" font-size="13px" font-style="normal" font-weight="bold" text-decoration="none" x="285.5" y="43.5">Binder</text></g></g><g transform="translate(10,-14) scale(1,1)"><rect fill="#C0C0C0" stroke="none" x="247" y="127" width="224" height="57" opacity="0.2"/></g><g transform="translate(10,-14) scale(1,1)"><rect fill="#ffffff" stroke="none" x="240" y="120" width="224" height="57"/></g><g transform="translate(10,-14) scale(1,1)"><path fill="none" stroke="#000000" d="M 240 120 L 464 120 L 464 177 L 240 177 L 240 120 Z Z" stroke-miterlimit="10"/></g><g transform="translate(10,-14) scale(1,1)"><path fill="none" stroke="#000000" d="M 240 145 L 464 145" stroke-miterlimit="10"/></g><g transform="translate(10,-14) scale(1,1)"><path fill="none" stroke="#000000" d="M 240 155 L 464 155" stroke-miterlimit="10"/></g><g transform="translate(10,-14) scale(1,1)"><g><path fill="none" stroke="none"/><text fill="#000000" stroke="none" font-family="Arial" font-size="13px" font-style="normal" font-weight="bold" text-decoration="none" x="286.5" y="139.5">ActivityManagerNative</text></g></g><g transform="translate(10,-14) scale(1,1)"><g><path fill="none" stroke="none"/><text fill="#000000" stroke="none" font-family="Arial" font-size="13px" font-style="normal" font-weight="normal" text-decoration="none" x="245" y="172.5">+getDefault()</text></g></g><g transform="translate(10,-14) scale(1,1)"><path fill="none" stroke="#000000" d="M 319 120 L 319 68" stroke-miterlimit="10"/></g><g transform="translate(10,-14) scale(1,1)"><path fill="#FFFFFF" stroke="none" d="M 327.419035512032 88.32534971524831 L 319 68 L 310.580964487968 88.32534971524831"/></g><g transform="translate(10,-14) scale(1,1)"><path fill="none" stroke="#000000" d="M 327.419035512032 88.32534971524831 L 319 68 L 310.580964487968 88.32534971524831 L 327.419035512032 88.32534971524831" stroke-miterlimit="10"/></g><g transform="translate(10,-14) scale(1,1)"><rect fill="#C0C0C0" stroke="none" x="431" y="31" width="112" height="48" opacity="0.2"/></g><g transform="translate(10,-14) scale(1,1)"><rect fill="#ffffff" stroke="none" x="424" y="24" width="112" height="48"/></g><g transform="translate(10,-14) scale(1,1)"><path fill="none" stroke="#000000" d="M 424 24 L 536 24 L 536 72 L 424 72 L 424 24 Z Z" stroke-miterlimit="10"/></g><g transform="translate(10,-14) scale(1,1)"><g><path fill="none" stroke="none"/><text fill="#000000" stroke="none" font-family="Arial" font-size="13px" font-style="italic" font-weight="bold" text-decoration="none" x="431" y="43.5">IActivityManager</text></g></g><g transform="translate(10,-14) scale(1,1)"><rect fill="#C0C0C0" stroke="none" x="495" y="127" width="144" height="44" opacity="0.2"/></g><g transform="translate(10,-14) scale(1,1)"><rect fill="#ffffff" stroke="none" x="488" y="120" width="144" height="44"/></g><g transform="translate(10,-14) scale(1,1)"><path fill="none" stroke="#000000" d="M 488 120 L 632 120 L 632 164 L 488 164 L 488 120 Z Z" stroke-miterlimit="10"/></g><g transform="translate(10,-14) scale(1,1)"><path fill="none" stroke="#000000" d="M 488 145 L 632 145" stroke-miterlimit="10"/></g><g transform="translate(10,-14) scale(1,1)"><path fill="none" stroke="#000000" d="M 488 155 L 632 155" stroke-miterlimit="10"/></g><g transform="translate(10,-14) scale(1,1)"><g><path fill="none" stroke="none"/><text fill="#000000" stroke="none" font-family="Arial" font-size="13px" font-style="normal" font-weight="bold" text-decoration="none" x="496" y="139.5">ActivityManagerProxy</text></g></g><g transform="translate(10,-14) scale(1,1)"><path fill="none" stroke="#000000" d="M 584 120 L 584 48 L 536 48" stroke-miterlimit="10" stroke-dasharray="3"/></g><g transform="translate(10,-14) scale(1,1)"><path fill="#FFFFFF" stroke="none" d="M 556.3253497152483 39.580964487968025 L 536 48 L 556.3253497152483 56.419035512031975"/></g><g transform="translate(10,-14) scale(1,1)"><path fill="none" stroke="#000000" d="M 556.3253497152483 39.580964487968025 L 536 48 L 556.3253497152483 56.419035512031975 L 556.3253497152483 39.580964487968025" stroke-miterlimit="10"/></g><g transform="translate(10,-14) scale(1,1)"><rect fill="#C0C0C0" stroke="none" x="279" y="231" width="154" height="44" opacity="0.2"/></g><g transform="translate(10,-14) scale(1,1)"><rect fill="#ffffff" stroke="none" x="272" y="224" width="154" height="44"/></g><g transform="translate(10,-14) scale(1,1)"><path fill="none" stroke="#000000" d="M 272 224 L 426 224 L 426 268 L 272 268 L 272 224 Z Z" stroke-miterlimit="10"/></g><g transform="translate(10,-14) scale(1,1)"><path fill="none" stroke="#000000" d="M 272 249 L 426 249" stroke-miterlimit="10"/></g><g transform="translate(10,-14) scale(1,1)"><path fill="none" stroke="#000000" d="M 272 259 L 426 259" stroke-miterlimit="10"/></g><g transform="translate(10,-14) scale(1,1)"><g><path fill="none" stroke="none"/><text fill="#000000" stroke="none" font-family="Arial" font-size="13px" font-style="normal" font-weight="bold" text-decoration="none" x="280" y="243.5">ActivityManagerService</text></g></g><g transform="translate(10,-14) scale(1,1)"><path fill="none" stroke="#000000" d="M 350 223 L 351 178" stroke-miterlimit="10"/></g><g transform="translate(10,-14) scale(1,1)"><path fill="#FFFFFF" stroke="none" d="M 358.96539455257874 198.50737646852343 L 351 178 L 342.1314795377165 198.13328946819317"/></g><g transform="translate(10,-14) scale(1,1)"><path fill="none" stroke="#000000" d="M 358.96539455257874 198.50737646852343 L 351 178 L 342.1314795377165 198.13328946819317 L 358.96539455257874 198.50737646852343" stroke-miterlimit="10"/></g><g transform="translate(10,-14) scale(1,1)"><rect fill="#C0C0C0" stroke="none" x="7" y="167" width="211" height="48" opacity="0.2"/></g><g transform="translate(10,-14) scale(1,1)"><rect fill="#ffffff" stroke="none" x="0" y="160" width="211" height="48"/></g><g transform="translate(10,-14) scale(1,1)"><path fill="none" stroke="#000000" d="M 0 160 L 211 160 L 211 208 L 0 208 L 0 160 Z Z" stroke-miterlimit="10"/></g><g transform="translate(10,-14) scale(1,1)"><g><path fill="none" stroke="none"/><text fill="#000000" stroke="none" font-family="Arial" font-size="13px" font-style="italic" font-weight="bold" text-decoration="none" x="8.5" y="179.5">BatteryStatsImpl.BatteryCallback</text></g></g><g transform="translate(10,-14) scale(1,1)"><path fill="none" stroke="#000000" d="M 271 247 L 240 248 L 240 184 L 212 184" stroke-miterlimit="10" stroke-dasharray="3"/></g><g transform="translate(10,-14) scale(1,1)"><path fill="#FFFFFF" stroke="none" d="M 232.3253497152483 175.58096448796803 L 212 184 L 232.3253497152483 192.41903551203197"/></g><g transform="translate(10,-14) scale(1,1)"><path fill="none" stroke="#000000" d="M 232.3253497152483 175.58096448796803 L 212 184 L 232.3253497152483 192.41903551203197 L 232.3253497152483 175.58096448796803" stroke-miterlimit="10"/></g><g transform="translate(10,-14) scale(1,1)"><rect fill="#C0C0C0" stroke="none" x="55" y="231" width="123" height="48" opacity="0.2"/></g><g transform="translate(10,-14) scale(1,1)"><rect fill="#ffffff" stroke="none" x="48" y="224" width="123" height="48"/></g><g transform="translate(10,-14) scale(1,1)"><path fill="none" stroke="#000000" d="M 48 224 L 171 224 L 171 272 L 48 272 L 48 224 Z Z" stroke-miterlimit="10"/></g><g transform="translate(10,-14) scale(1,1)"><g><path fill="none" stroke="none"/><text fill="#000000" stroke="none" font-family="Arial" font-size="13px" font-style="italic" font-weight="bold" text-decoration="none" x="57" y="243.5">Watchdog.Monitor</text></g></g><g transform="translate(10,-14) scale(1,1)"><path fill="none" stroke="#000000" d="M 271 247 L 172 247" stroke-miterlimit="10" stroke-dasharray="3"/></g><g transform="translate(10,-14) scale(1,1)"><path fill="#FFFFFF" stroke="none" d="M 192.3253497152483 238.58096448796803 L 172 247 L 192.3253497152483 255.41903551203197"/></g><g transform="translate(10,-14) scale(1,1)"><path fill="none" stroke="#000000" d="M 192.3253497152483 238.58096448796803 L 172 247 L 192.3253497152483 255.41903551203197 L 192.3253497152483 238.58096448796803" stroke-miterlimit="10"/></g><g transform="translate(10,-14) scale(1,1)"><path fill="none" stroke="#000000" d="M 368 120 L 368 104 L 480 104 L 480 72" stroke-miterlimit="10" stroke-dasharray="3"/></g><g transform="translate(10,-14) scale(1,1)"><path fill="#FFFFFF" stroke="none" d="M 488.419035512032 92.32534971524831 L 480 72 L 471.580964487968 92.32534971524831"/></g><g transform="translate(10,-14) scale(1,1)"><path fill="none" stroke="#000000" d="M 488.419035512032 92.32534971524831 L 480 72 L 471.580964487968 92.32534971524831 L 488.419035512032 92.32534971524831" stroke-miterlimit="10"/></g><g transform="translate(10,-14) scale(1,1)"><rect fill="#C0C0C0" stroke="none" x="495" y="183" width="283" height="96" opacity="0.2"/></g><g transform="translate(10,-14) scale(1,1)"><rect fill="#ffffff" stroke="none" x="488" y="176" width="283" height="96"/></g><g transform="translate(10,-14) scale(1,1)"><path fill="none" stroke="#000000" d="M 488 176 L 771 176 L 771 272 L 488 272 L 488 176 Z Z" stroke-miterlimit="10"/></g><g transform="translate(10,-14) scale(1,1)"><path fill="none" stroke="#000000" d="M 488 201 L 771 201" stroke-miterlimit="10"/></g><g transform="translate(10,-14) scale(1,1)"><path fill="none" stroke="#000000" d="M 488 211 L 771 211" stroke-miterlimit="10"/></g><g transform="translate(10,-14) scale(1,1)"><g><path fill="none" stroke="none"/><text fill="#000000" stroke="none" font-family="Arial" font-size="13px" font-style="normal" font-weight="bold" text-decoration="none" x="582.5" y="195.5">ActivityManager</text></g></g><g transform="translate(10,-14) scale(1,1)"><g><path fill="none" stroke="none"/><text fill="#000000" stroke="none" font-family="Arial" font-size="13px" font-style="normal" font-weight="normal" text-decoration="none" x="493" y="228.5">+内部调用ActivityManagerNative.getDefault()</text></g></g><g transform="translate(10,-14) scale(1,1)"><g><path fill="none" stroke="none"/><text fill="#000000" stroke="none" font-family="Arial" font-size="13px" font-style="normal" font-weight="normal" text-decoration="none" x="493" y="243.5">+得到一个ActivityManagerProxy对象，从而与()</text></g></g><g transform="translate(10,-14) scale(1,1)"><g><path fill="none" stroke="none"/><text fill="#000000" stroke="none" font-family="Arial" font-size="13px" font-style="normal" font-weight="normal" text-decoration="none" x="493" y="258.5">+AMS交互()</text></g></g></g></svg>