<svg version="1.1" xmlns="http://www.w3.org/2000/svg" xmlns:xlink="http://www.w3.org/1999/xlink" width="606" height="301"><defs/><g><g transform="translate(-38,-10) scale(1,1)"><rect fill="#C0C0C0" stroke="none" x="351.25" y="27" width="69" height="48" opacity="0.2"/></g><g transform="translate(-38,-10) scale(1,1)"><rect fill="#ffffff" stroke="none" x="344.25" y="20" width="69" height="48"/></g><g transform="translate(-38,-10) scale(1,1)"><path fill="none" stroke="#000000" d="M 344.25 20 L 413.25 20 L 413.25 68 L 344.25 68 L 344.25 20 Z Z" stroke-miterlimit="10"/></g><g transform="translate(-38,-10) scale(1,1)"><g><path fill="none" stroke="none"/><text fill="#000000" stroke="none" font-family="Arial" font-size="13px" font-style="normal" font-weight="bold" text-decoration="none" x="366.25" y="39.5">Map</text></g></g><g transform="translate(-38,-10) scale(1,1)"><rect fill="#C0C0C0" stroke="none" x="567" y="108" width="74" height="44" opacity="0.2"/></g><g transform="translate(-38,-10) scale(1,1)"><rect fill="#ffffff" stroke="none" x="560" y="101" width="74" height="44"/></g><g transform="translate(-38,-10) scale(1,1)"><path fill="none" stroke="#000000" d="M 560 101 L 634 101 L 634 145 L 560 145 L 560 101 Z Z" stroke-miterlimit="10"/></g><g transform="translate(-38,-10) scale(1,1)"><path fill="none" stroke="#000000" d="M 560 126 L 634 126" stroke-miterlimit="10"/></g><g transform="translate(-38,-10) scale(1,1)"><path fill="none" stroke="#000000" d="M 560 136 L 634 136" stroke-miterlimit="10"/></g><g transform="translate(-38,-10) scale(1,1)"><g><path fill="none" stroke="none"/><text fill="#000000" stroke="none" font-family="Arial" font-size="13px" font-style="normal" font-weight="bold" text-decoration="none" x="566" y="120.5">HashTable</text></g></g><g transform="translate(-38,-10) scale(1,1)"><path fill="none" stroke="#000000" d="M 559 103 Q 472 56 414 49" stroke-miterlimit="10" stroke-dasharray="3"/></g><g transform="translate(-38,-10) scale(1,1)"><path fill="#FFFFFF" stroke="none" d="M 435.1876882138961 43.077005136695796 L 414 49 L 433.17014784648774 59.79376818093674"/></g><g transform="translate(-38,-10) scale(1,1)"><path fill="none" stroke="#000000" d="M 435.1876882138961 43.077005136695796 L 414 49 L 433.17014784648774 59.79376818093674 L 435.1876882138961 43.077005136695796" stroke-miterlimit="10"/></g><g transform="translate(-38,-10) scale(1,1)"><rect fill="#C0C0C0" stroke="none" x="121.75" y="108" width="66" height="44" opacity="0.2"/></g><g transform="translate(-38,-10) scale(1,1)"><rect fill="#ffffff" stroke="none" x="114.75" y="101" width="66" height="44"/></g><g transform="translate(-38,-10) scale(1,1)"><path fill="none" stroke="#000000" d="M 114.75 101 L 180.75 101 L 180.75 145 L 114.75 145 L 114.75 101 Z Z" stroke-miterlimit="10"/></g><g transform="translate(-38,-10) scale(1,1)"><path fill="none" stroke="#000000" d="M 114.75 126 L 180.75 126" stroke-miterlimit="10"/></g><g transform="translate(-38,-10) scale(1,1)"><path fill="none" stroke="#000000" d="M 114.75 136 L 180.75 136" stroke-miterlimit="10"/></g><g transform="translate(-38,-10) scale(1,1)"><g><path fill="none" stroke="none"/><text fill="#000000" stroke="none" font-family="Arial" font-size="13px" font-style="normal" font-weight="bold" text-decoration="none" x="120.25" y="120.5">HashMap</text></g></g><g transform="translate(-38,-10) scale(1,1)"><path fill="none" stroke="#000000" d="M 171 100 Q 224 48 343 45" stroke-miterlimit="10" stroke-dasharray="3"/></g><g transform="translate(-38,-10) scale(1,1)"><path fill="#FFFFFF" stroke="none" d="M 322.89328325781594 53.92860245780798 L 343 45 L 322.46892889976965 37.095879588639455"/></g><g transform="translate(-38,-10) scale(1,1)"><path fill="none" stroke="#000000" d="M 322.89328325781594 53.92860245780798 L 343 45 L 322.46892889976965 37.095879588639455 L 322.89328325781594 53.92860245780798" stroke-miterlimit="10"/></g><g transform="translate(-38,-10) scale(1,1)"><rect fill="#C0C0C0" stroke="none" x="219.75" y="108" width="99" height="44" opacity="0.2"/></g><g transform="translate(-38,-10) scale(1,1)"><rect fill="#ffffff" stroke="none" x="212.75" y="101" width="99" height="44"/></g><g transform="translate(-38,-10) scale(1,1)"><path fill="none" stroke="#000000" d="M 212.75 101 L 311.75 101 L 311.75 145 L 212.75 145 L 212.75 101 Z Z" stroke-miterlimit="10"/></g><g transform="translate(-38,-10) scale(1,1)"><path fill="none" stroke="#000000" d="M 212.75 126 L 311.75 126" stroke-miterlimit="10"/></g><g transform="translate(-38,-10) scale(1,1)"><path fill="none" stroke="#000000" d="M 212.75 136 L 311.75 136" stroke-miterlimit="10"/></g><g transform="translate(-38,-10) scale(1,1)"><g><path fill="none" stroke="none"/><text fill="#000000" stroke="none" font-family="Arial" font-size="13px" font-style="normal" font-weight="bold" text-decoration="none" x="218.25" y="120.5">WeakHashMap</text></g></g><g transform="translate(-38,-10) scale(1,1)"><path fill="none" stroke="#000000" d="M 263 100 Q 263 84 343 56" stroke-miterlimit="10" stroke-dasharray="3"/></g><g transform="translate(-38,-10) scale(1,1)"><path fill="#FFFFFF" stroke="none" d="M 326.596980782402 70.66086493175321 L 343 56 L 321.0345168680005 54.76811089060594"/></g><g transform="translate(-38,-10) scale(1,1)"><path fill="none" stroke="#000000" d="M 326.596980782402 70.66086493175321 L 343 56 L 321.0345168680005 54.76811089060594 L 326.596980782402 70.66086493175321" stroke-miterlimit="10"/></g><g transform="translate(-38,-10) scale(1,1)"><rect fill="#C0C0C0" stroke="none" x="349.75" y="108" width="72" height="44" opacity="0.2"/></g><g transform="translate(-38,-10) scale(1,1)"><rect fill="#ffffff" stroke="none" x="342.75" y="101" width="72" height="44"/></g><g transform="translate(-38,-10) scale(1,1)"><path fill="none" stroke="#000000" d="M 342.75 101 L 414.75 101 L 414.75 145 L 342.75 145 L 342.75 101 Z Z" stroke-miterlimit="10"/></g><g transform="translate(-38,-10) scale(1,1)"><path fill="none" stroke="#000000" d="M 342.75 126 L 414.75 126" stroke-miterlimit="10"/></g><g transform="translate(-38,-10) scale(1,1)"><path fill="none" stroke="#000000" d="M 342.75 136 L 414.75 136" stroke-miterlimit="10"/></g><g transform="translate(-38,-10) scale(1,1)"><g><path fill="none" stroke="none"/><text fill="#000000" stroke="none" font-family="Arial" font-size="13px" font-style="normal" font-weight="bold" text-decoration="none" x="349.25" y="120.5">EnumMap</text></g></g><g transform="translate(-38,-10) scale(1,1)"><path fill="none" stroke="#000000" d="M 379 100 Q 379 84 379 69" stroke-miterlimit="10" stroke-dasharray="3"/></g><g transform="translate(-38,-10) scale(1,1)"><path fill="#FFFFFF" stroke="none" d="M 387.419035512032 89.32534971524831 L 379 69 L 370.580964487968 89.32534971524831"/></g><g transform="translate(-38,-10) scale(1,1)"><path fill="none" stroke="#000000" d="M 387.419035512032 89.32534971524831 L 379 69 L 370.580964487968 89.32534971524831 L 387.419035512032 89.32534971524831" stroke-miterlimit="10"/></g><g transform="translate(-38,-10) scale(1,1)"><rect fill="#C0C0C0" stroke="none" x="447" y="106" width="76" height="48" opacity="0.2"/></g><g transform="translate(-38,-10) scale(1,1)"><rect fill="#ffffff" stroke="none" x="440" y="99" width="76" height="48"/></g><g transform="translate(-38,-10) scale(1,1)"><path fill="none" stroke="#000000" d="M 440 99 L 516 99 L 516 147 L 440 147 L 440 99 Z Z" stroke-miterlimit="10"/></g><g transform="translate(-38,-10) scale(1,1)"><g><path fill="none" stroke="none"/><text fill="#000000" stroke="none" font-family="Arial" font-size="13px" font-style="normal" font-weight="bold" text-decoration="none" x="446.5" y="118.5">SortedMap</text></g></g><g transform="translate(-38,-10) scale(1,1)"><path fill="none" stroke="#000000" d="M 477 98 Q 477 84 414 59" stroke-miterlimit="10"/></g><g transform="translate(-38,-10) scale(1,1)"><path fill="#FFFFFF" stroke="none" d="M 435.99754729550284 58.67149888566918 L 414 59 L 429.7869002276925 74.32232949655118"/></g><g transform="translate(-38,-10) scale(1,1)"><path fill="none" stroke="#000000" d="M 435.99754729550284 58.67149888566918 L 414 59 L 429.7869002276925 74.32232949655118 L 435.99754729550284 58.67149888566918" stroke-miterlimit="10"/></g><g transform="translate(-38,-10) scale(1,1)"><rect fill="#C0C0C0" stroke="none" x="567" y="31" width="72" height="44" opacity="0.2"/></g><g transform="translate(-38,-10) scale(1,1)"><rect fill="#ffffff" stroke="none" x="560" y="24" width="72" height="44"/></g><g transform="translate(-38,-10) scale(1,1)"><path fill="none" stroke="#000000" d="M 560 24 L 632 24 L 632 68 L 560 68 L 560 24 Z Z" stroke-miterlimit="10"/></g><g transform="translate(-38,-10) scale(1,1)"><path fill="none" stroke="#000000" d="M 560 49 L 632 49" stroke-miterlimit="10"/></g><g transform="translate(-38,-10) scale(1,1)"><path fill="none" stroke="#000000" d="M 560 59 L 632 59" stroke-miterlimit="10"/></g><g transform="translate(-38,-10) scale(1,1)"><g><path fill="none" stroke="none"/><text fill="#000000" stroke="none" font-family="Arial" font-size="13px" font-style="normal" font-weight="bold" text-decoration="none" x="567" y="43.5">Dictionary</text></g></g><g transform="translate(-38,-10) scale(1,1)"><path fill="none" stroke="#000000" d="M 597 100 L 596 69" stroke-miterlimit="10"/></g><g transform="translate(-38,-10) scale(1,1)"><path fill="#FFFFFF" stroke="none" d="M 605.0699741522405 89.04334225815865 L 596 69 L 588.2406569998492 89.58622345662288"/></g><g transform="translate(-38,-10) scale(1,1)"><path fill="none" stroke="#000000" d="M 605.0699741522405 89.04334225815865 L 596 69 L 588.2406569998492 89.58622345662288 L 605.0699741522405 89.04334225815865" stroke-miterlimit="10"/></g><g transform="translate(-38,-10) scale(1,1)"><rect fill="#C0C0C0" stroke="none" x="59" y="187" width="108" height="44" opacity="0.2"/></g><g transform="translate(-38,-10) scale(1,1)"><rect fill="#ffffff" stroke="none" x="52" y="180" width="108" height="44"/></g><g transform="translate(-38,-10) scale(1,1)"><path fill="none" stroke="#000000" d="M 52 180 L 160 180 L 160 224 L 52 224 L 52 180 Z Z" stroke-miterlimit="10"/></g><g transform="translate(-38,-10) scale(1,1)"><path fill="none" stroke="#000000" d="M 52 205 L 160 205" stroke-miterlimit="10"/></g><g transform="translate(-38,-10) scale(1,1)"><path fill="none" stroke="#000000" d="M 52 215 L 160 215" stroke-miterlimit="10"/></g><g transform="translate(-38,-10) scale(1,1)"><g><path fill="none" stroke="none"/><text fill="#000000" stroke="none" font-family="Arial" font-size="13px" font-style="normal" font-weight="bold" text-decoration="none" x="59.5" y="199.5">LinkedHashMap</text></g></g><g transform="translate(-38,-10) scale(1,1)"><path fill="none" stroke="#000000" d="M 107 179 Q 107 163 124 146" stroke-miterlimit="10"/></g><g transform="translate(-38,-10) scale(1,1)"><path fill="#FFFFFF" stroke="none" d="M 115.58096448796803 166.3253497152483 L 124 146 L 103.67465028475169 154.41903551203197"/></g><g transform="translate(-38,-10) scale(1,1)"><path fill="none" stroke="#000000" d="M 115.58096448796803 166.3253497152483 L 124 146 L 103.67465028475169 154.41903551203197 L 115.58096448796803 166.3253497152483" stroke-miterlimit="10"/></g><g transform="translate(-38,-10) scale(1,1)"><rect fill="#C0C0C0" stroke="none" x="435.75" y="185" width="96" height="48" opacity="0.2"/></g><g transform="translate(-38,-10) scale(1,1)"><rect fill="#ffffff" stroke="none" x="428.75" y="178" width="96" height="48"/></g><g transform="translate(-38,-10) scale(1,1)"><path fill="none" stroke="#000000" d="M 428.75 178 L 524.75 178 L 524.75 226 L 428.75 226 L 428.75 178 Z Z" stroke-miterlimit="10"/></g><g transform="translate(-38,-10) scale(1,1)"><g><path fill="none" stroke="none"/><text fill="#000000" stroke="none" font-family="Arial" font-size="13px" font-style="normal" font-weight="bold" text-decoration="none" x="435.75" y="197.5">NavigableMap</text></g></g><g transform="translate(-38,-10) scale(1,1)"><path fill="none" stroke="#000000" d="M 477 177 Q 477 163 477 148" stroke-miterlimit="10"/></g><g transform="translate(-38,-10) scale(1,1)"><path fill="#FFFFFF" stroke="none" d="M 485.419035512032 168.3253497152483 L 477 148 L 468.580964487968 168.3253497152483"/></g><g transform="translate(-38,-10) scale(1,1)"><path fill="none" stroke="#000000" d="M 485.419035512032 168.3253497152483 L 477 148 L 468.580964487968 168.3253497152483 L 485.419035512032 168.3253497152483" stroke-miterlimit="10"/></g><g transform="translate(-38,-10) scale(1,1)"><rect fill="#C0C0C0" stroke="none" x="452.75" y="264" width="62" height="44" opacity="0.2"/></g><g transform="translate(-38,-10) scale(1,1)"><rect fill="#ffffff" stroke="none" x="445.75" y="257" width="62" height="44"/></g><g transform="translate(-38,-10) scale(1,1)"><path fill="none" stroke="#000000" d="M 445.75 257 L 507.75 257 L 507.75 301 L 445.75 301 L 445.75 257 Z Z" stroke-miterlimit="10"/></g><g transform="translate(-38,-10) scale(1,1)"><path fill="none" stroke="#000000" d="M 445.75 282 L 507.75 282" stroke-miterlimit="10"/></g><g transform="translate(-38,-10) scale(1,1)"><path fill="none" stroke="#000000" d="M 445.75 292 L 507.75 292" stroke-miterlimit="10"/></g><g transform="translate(-38,-10) scale(1,1)"><g><path fill="none" stroke="none"/><text fill="#000000" stroke="none" font-family="Arial" font-size="13px" font-style="normal" font-weight="bold" text-decoration="none" x="451.25" y="276.5">TreeMap</text></g></g><g transform="translate(-38,-10) scale(1,1)"><path fill="none" stroke="#000000" d="M 477 256 Q 477 242 477 227" stroke-miterlimit="10" stroke-dasharray="3"/></g><g transform="translate(-38,-10) scale(1,1)"><path fill="#FFFFFF" stroke="none" d="M 485.419035512032 247.3253497152483 L 477 227 L 468.580964487968 247.3253497152483"/></g><g transform="translate(-38,-10) scale(1,1)"><path fill="none" stroke="#000000" d="M 485.419035512032 247.3253497152483 L 477 227 L 468.580964487968 247.3253497152483 L 485.419035512032 247.3253497152483" stroke-miterlimit="10"/></g><g transform="translate(-38,-10) scale(1,1)"><path fill="#ffffff" stroke="none" d="M 48 256 L 420 256 L 430 266 L 430 299 L 48 299 L 48 256"/></g><g transform="translate(-38,-10) scale(1,1)"><path fill="none" stroke="#000000" d="M 48 256 L 420 256 L 430 266 L 430 299 L 48 299 L 48 256 L 48 256" stroke-miterlimit="10"/></g><g transform="translate(-38,-10) scale(1,1)"><path fill="none" stroke="#000000" d="M 420 256 L 420 266 L 430 266 L 420 256" stroke-miterlimit="10"/></g><g transform="translate(-38,-10) scale(1,1)"><g><path fill="none" stroke="none"/><text fill="#000000" stroke="none" font-family="Arial" font-size="12px" font-style="normal" font-weight="normal" text-decoration="none" x="53" y="273">这些类都是AbstractMap的子类，AbstractMap提供了Map的基础实现</text></g></g><g transform="translate(-38,-10) scale(1,1)"><path fill="none" stroke="#000000" d="M 155 255 Q 107 242 107 225" stroke-miterlimit="10" stroke-dasharray="3"/></g><g transform="translate(-38,-10) scale(1,1)"><path fill="none" stroke="#000000" d="M 225 255 L 161 146" stroke-miterlimit="10" stroke-dasharray="3"/></g><g transform="translate(-38,-10) scale(1,1)"><path fill="none" stroke="#000000" d="M 246 255 Q 263 200 262 146" stroke-miterlimit="10" stroke-dasharray="3"/></g><g transform="translate(-38,-10) scale(1,1)"><path fill="none" stroke="#000000" d="M 274 255 Q 368 192 373.5 177.5 Q 379 163 379 146" stroke-miterlimit="10" stroke-dasharray="3"/></g><g transform="translate(-38,-10) scale(1,1)"><path fill="none" stroke="#000000" d="M 432 279 L 445 279" stroke-miterlimit="10" stroke-dasharray="3"/></g></g></svg>